# Blender 5.0.1
# www.blender.org
mtllib chair2.mtl
o CHAIR_LEG
v -0.693223 0.104815 0.033898
v -0.611895 0.785321 0.073657
v -0.694627 0.104810 0.036855
v -0.613299 0.785316 0.076613
v -0.696578 0.104890 0.039482
v -0.615251 0.785396 0.079240
v -0.699001 0.105051 0.041680
v -0.617674 0.785557 0.081438
v -0.701803 0.105287 0.043363
v -0.620475 0.785794 0.083122
v -0.704875 0.105590 0.044468
v -0.623547 0.786096 0.084227
v -0.708101 0.105947 0.044951
v -0.626773 0.786454 0.084710
v -0.711355 0.106345 0.044795
v -0.630027 0.786852 0.084553
v -0.714513 0.106769 0.044004
v -0.633186 0.787275 0.083763
v -0.717454 0.107202 0.042610
v -0.636126 0.787708 0.082369
v -0.720065 0.107627 0.040666
v -0.638737 0.788134 0.080425
v -0.722244 0.108029 0.038247
v -0.640916 0.788536 0.078005
v -0.723909 0.108392 0.035446
v -0.642581 0.788898 0.075204
v -0.724996 0.108701 0.032369
v -0.643668 0.789208 0.072128
v -0.725462 0.108946 0.029137
v -0.644134 0.789452 0.068895
v -0.725290 0.109116 0.025872
v -0.643962 0.789623 0.065631
v -0.724486 0.109205 0.022701
v -0.643158 0.789712 0.062459
v -0.723082 0.109210 0.019744
v -0.641754 0.789717 0.059503
v -0.721131 0.109130 0.017117
v -0.639803 0.789637 0.056875
v -0.718708 0.108969 0.014919
v -0.637380 0.789476 0.054677
v -0.715906 0.108733 0.013236
v -0.634578 0.789239 0.052994
v -0.712834 0.108430 0.012131
v -0.631506 0.788937 0.051889
v -0.709608 0.108073 0.011648
v -0.628280 0.788580 0.051406
v -0.706354 0.107675 0.011804
v -0.625026 0.788182 0.051563
v -0.703196 0.107251 0.012595
v -0.621868 0.787758 0.052353
v -0.700255 0.106818 0.013989
v -0.618927 0.787325 0.053747
v -0.697644 0.106393 0.015933
v -0.616317 0.786899 0.055691
v -0.695465 0.105991 0.018352
v -0.614137 0.786498 0.058110
v -0.693800 0.105628 0.021153
v -0.612472 0.786135 0.060912
v -0.692713 0.105319 0.024230
v -0.611386 0.785825 0.063988
v -0.692247 0.105074 0.027462
v -0.610919 0.785581 0.067221
v -0.692419 0.104904 0.030727
v -0.611091 0.785411 0.070485
v -0.656958 0.874833 0.031420
v 0.106831 0.845745 0.402741
v -0.402346 0.885688 -0.675186
v 0.423015 0.859224 -0.474742
v -0.802657 1.683857 0.050970
v -0.510023 1.696332 -0.761155
v -0.659301 0.709497 0.028036
v 0.105156 0.727542 0.400322
v -0.404689 0.720352 -0.678570
v 0.421340 0.741021 -0.477161
v -0.577592 0.836533 0.092955
v 0.002388 0.847502 0.373724
v -0.475762 0.836218 0.125271
v -0.376571 0.837097 0.164985
v -0.278263 0.838384 0.207180
v -0.181894 0.840435 0.254804
v -0.089964 0.844091 0.314856
v -0.301601 0.848298 -0.672984
v 0.324049 0.861215 -0.518962
v -0.202559 0.847866 -0.632932
v -0.100843 0.848852 -0.600224
v 0.001770 0.850322 -0.569978
v 0.106346 0.852723 -0.545128
v 0.215412 0.857110 -0.532632
v -0.579407 0.708458 0.090334
v 0.000598 0.721217 0.371139
v -0.477506 0.713170 0.122753
v -0.378280 0.716463 0.162516
v -0.279951 0.719272 0.204742
v -0.183584 0.721150 0.252363
v -0.091707 0.721043 0.312338
v -0.303416 0.720224 -0.675606
v 0.322260 0.734930 -0.521546
v -0.204303 0.724817 -0.635450
v -0.102552 0.728218 -0.602693
v 0.000083 0.731211 -0.572416
v 0.104656 0.733438 -0.547569
v 0.213668 0.734061 -0.535150
v 0.114317 0.846064 0.381967
v 0.112642 0.727861 0.379547
v -0.571058 0.836811 0.074821
v -0.469294 0.836494 0.107320
v -0.370042 0.837375 0.146868
v -0.271633 0.838666 0.188780
v -0.175069 0.840726 0.235865
v -0.082734 0.844399 0.294791
v 0.010003 0.847826 0.352589
v 0.415529 0.858905 -0.453967
v 0.413854 0.740702 -0.456386
v -0.308135 0.848020 -0.654850
v -0.209027 0.847590 -0.614981
v -0.107371 0.848573 -0.582107
v -0.004860 0.850039 -0.551578
v 0.099522 0.852432 -0.526189
v 0.208182 0.856802 -0.512567
v 0.316434 0.860890 -0.497827
v -0.409960 1.217327 -0.698914
v -0.681203 1.205764 0.053847
v -0.503977 1.666226 -0.757330
v -0.795265 1.653808 0.051064
v 0.188162 0.847670 0.403661
v 0.486224 0.860377 -0.423532
v 0.186487 0.729467 0.401241
v 0.484549 0.742174 -0.425951
v 0.195218 0.847971 0.384078
v 0.193543 0.729768 0.381659
v 0.479168 0.860076 -0.403950
v 0.477493 0.741873 -0.406369
v -0.674175 0.894100 0.095959
v -0.676823 0.707224 0.092134
v -0.666769 0.923317 0.038092
v -0.374639 0.906870 -0.735323
v -0.529652 0.880261 -0.321883
v -0.737000 1.688377 -0.384183
v -0.531995 0.714924 -0.325267
v -0.339161 0.842042 -0.253830
v -0.238707 0.842974 -0.217619
v -0.138246 0.844353 -0.181399
v -0.037774 0.846579 -0.145162
v 0.062724 0.850601 -0.108888
v 0.163218 0.854358 -0.072619
v 0.264923 0.852485 -0.036000
v 0.263248 0.734281 -0.038420
v -0.439596 0.842415 -0.290015
v -0.548019 1.211494 -0.323413
v -0.729416 1.658317 -0.381912
v 0.337193 0.854024 -0.009936
v 0.335518 0.735820 -0.012355
v -0.536446 0.928873 -0.323584
v -0.377287 0.719993 -0.739148
v -0.406123 0.934429 -0.685260
v -0.420657 0.116435 -0.722534
v -0.339330 0.796941 -0.682776
v -0.422062 0.116430 -0.719578
v -0.340734 0.796936 -0.679820
v -0.424013 0.116509 -0.716951
v -0.342685 0.797016 -0.677192
v -0.426436 0.116671 -0.714753
v -0.345108 0.797177 -0.674994
v -0.429237 0.116907 -0.713069
v -0.347909 0.797414 -0.673311
v -0.432310 0.117210 -0.711964
v -0.350982 0.797716 -0.672206
v -0.435535 0.117567 -0.711481
v -0.354207 0.798073 -0.671723
v -0.438790 0.117965 -0.711638
v -0.357462 0.798472 -0.671879
v -0.441948 0.118389 -0.712428
v -0.360620 0.798895 -0.672670
v -0.444889 0.118822 -0.713822
v -0.363561 0.799328 -0.674064
v -0.447499 0.119247 -0.715766
v -0.366171 0.799754 -0.676008
v -0.449679 0.119649 -0.718185
v -0.368351 0.800155 -0.678427
v -0.451344 0.120012 -0.720987
v -0.370016 0.800518 -0.681229
v -0.452430 0.120321 -0.724063
v -0.371102 0.800828 -0.684305
v -0.452896 0.120566 -0.727296
v -0.371568 0.801072 -0.687537
v -0.452724 0.120736 -0.730560
v -0.371396 0.801242 -0.690802
v -0.451921 0.120825 -0.733732
v -0.370593 0.801332 -0.693974
v -0.450516 0.120830 -0.736688
v -0.369188 0.801337 -0.696930
v -0.448565 0.120750 -0.739316
v -0.367237 0.801257 -0.699557
v -0.446142 0.120589 -0.741514
v -0.364814 0.801096 -0.701755
v -0.443341 0.120353 -0.743197
v -0.362013 0.800859 -0.703439
v -0.440268 0.120050 -0.744302
v -0.358940 0.800557 -0.704543
v -0.437043 0.119693 -0.744785
v -0.355715 0.800199 -0.705027
v -0.433788 0.119295 -0.744628
v -0.352461 0.799801 -0.704870
v -0.430630 0.118871 -0.743838
v -0.349302 0.799378 -0.704080
v -0.427689 0.118438 -0.742444
v -0.346361 0.798945 -0.702686
v -0.425079 0.118013 -0.740500
v -0.343751 0.798519 -0.700742
v -0.422899 0.117611 -0.738081
v -0.341571 0.798117 -0.698322
v -0.421234 0.117248 -0.735279
v -0.339906 0.797755 -0.695521
v -0.420148 0.116939 -0.732203
v -0.338820 0.797445 -0.692445
v -0.419682 0.116694 -0.728971
v -0.338354 0.797201 -0.689212
v -0.419854 0.116524 -0.725706
v -0.338526 0.797030 -0.685947
v 0.205950 0.123963 0.358192
v 0.143863 0.801416 0.346227
v 0.207356 0.124065 0.355238
v 0.145269 0.801518 0.343273
v 0.209311 0.124274 0.352616
v 0.147224 0.801726 0.340651
v 0.211740 0.124580 0.350428
v 0.149654 0.802032 0.338463
v 0.214551 0.124972 0.348757
v 0.152464 0.802425 0.336792
v 0.217634 0.125436 0.347668
v 0.155548 0.802889 0.335703
v 0.220872 0.125953 0.347203
v 0.158785 0.803406 0.335238
v 0.224140 0.126504 0.347379
v 0.162053 0.803956 0.335414
v 0.227312 0.127067 0.348189
v 0.165226 0.804520 0.336224
v 0.230267 0.127621 0.349604
v 0.168180 0.805073 0.337639
v 0.232891 0.128144 0.351567
v 0.170804 0.805597 0.339602
v 0.235083 0.128617 0.354004
v 0.172996 0.806069 0.342039
v 0.236758 0.129021 0.356821
v 0.174672 0.806473 0.344856
v 0.237854 0.129340 0.359910
v 0.175767 0.806792 0.347945
v 0.238327 0.129563 0.363153
v 0.176240 0.807015 0.351188
v 0.238159 0.129680 0.366423
v 0.176072 0.807133 0.354458
v 0.237356 0.129688 0.369597
v 0.175270 0.807141 0.357632
v 0.235951 0.129586 0.372551
v 0.173864 0.807039 0.360586
v 0.233995 0.129378 0.375173
v 0.171909 0.806831 0.363208
v 0.231566 0.129072 0.377361
v 0.169479 0.806524 0.365396
v 0.228756 0.128679 0.379031
v 0.166669 0.806132 0.367066
v 0.225672 0.128216 0.380120
v 0.163586 0.805668 0.368155
v 0.222434 0.127698 0.380586
v 0.160348 0.805151 0.368621
v 0.219166 0.127148 0.380410
v 0.157080 0.804600 0.368445
v 0.215994 0.126585 0.379599
v 0.153908 0.804037 0.367634
v 0.213039 0.126031 0.378185
v 0.150953 0.803483 0.366220
v 0.210416 0.125508 0.376222
v 0.148329 0.802960 0.364257
v 0.208224 0.125035 0.373784
v 0.146137 0.802487 0.361819
v 0.206548 0.124631 0.370967
v 0.144461 0.802084 0.359002
v 0.205453 0.124312 0.367878
v 0.143366 0.801764 0.355913
v 0.204980 0.124089 0.364636
v 0.142893 0.801541 0.352671
v 0.205148 0.123971 0.361365
v 0.143061 0.801424 0.349400
v 0.478516 0.135583 -0.398241
v 0.416429 0.813036 -0.410206
v 0.479921 0.135685 -0.401195
v 0.417835 0.813138 -0.413160
v 0.481876 0.135893 -0.403816
v 0.419790 0.813346 -0.415781
v 0.484306 0.136200 -0.406005
v 0.422219 0.813652 -0.417970
v 0.487116 0.136592 -0.407675
v 0.425030 0.814045 -0.419640
v 0.490200 0.137056 -0.408764
v 0.428113 0.814508 -0.420729
v 0.493438 0.137573 -0.409230
v 0.431351 0.815026 -0.421195
v 0.496705 0.138124 -0.409054
v 0.434619 0.815576 -0.421019
v 0.499878 0.138687 -0.408243
v 0.437791 0.816139 -0.420208
v 0.502832 0.139241 -0.406829
v 0.440746 0.816693 -0.418794
v 0.505456 0.139764 -0.404865
v 0.443370 0.817216 -0.416830
v 0.507648 0.140237 -0.402428
v 0.445562 0.817689 -0.414393
v 0.509324 0.140640 -0.399611
v 0.447238 0.818093 -0.411576
v 0.510419 0.140960 -0.396522
v 0.448333 0.818412 -0.408487
v 0.510892 0.141183 -0.393280
v 0.448806 0.818635 -0.405245
v 0.510724 0.141300 -0.390009
v 0.448638 0.818753 -0.401974
v 0.509922 0.141308 -0.386836
v 0.447835 0.818761 -0.398801
v 0.508516 0.141206 -0.383882
v 0.446430 0.818659 -0.395847
v 0.506561 0.140998 -0.381260
v 0.444474 0.818450 -0.393225
v 0.504131 0.140692 -0.379072
v 0.442045 0.818144 -0.391037
v 0.501321 0.140299 -0.377401
v 0.439235 0.817752 -0.389366
v 0.498238 0.139835 -0.376312
v 0.436151 0.817288 -0.388277
v 0.495000 0.139318 -0.375847
v 0.432913 0.816771 -0.387812
v 0.491732 0.138768 -0.376023
v 0.429646 0.816220 -0.387988
v 0.488560 0.138204 -0.376833
v 0.426473 0.815657 -0.388798
v 0.485605 0.137651 -0.378248
v 0.423519 0.815103 -0.390213
v 0.482981 0.137127 -0.380211
v 0.420895 0.814580 -0.392176
v 0.480789 0.136655 -0.382648
v 0.418703 0.814107 -0.394613
v 0.479113 0.136251 -0.385465
v 0.417027 0.813703 -0.397430
v 0.478018 0.135932 -0.388554
v 0.415932 0.813384 -0.400519
v 0.477545 0.135709 -0.391796
v 0.415459 0.813161 -0.403762
v 0.477713 0.135591 -0.395067
v 0.415627 0.813044 -0.407032
vn 0.8955 -0.1319 0.4252
vn 0.7942 -0.1296 0.5937
vn 0.6623 -0.1223 0.7392
vn 0.5051 -0.1104 0.8560
vn 0.3286 -0.0942 0.9398
vn 0.1397 -0.0744 0.9874
vn -0.0543 -0.0518 0.9972
vn -0.2462 -0.0272 0.9688
vn -0.4285 -0.0016 0.9035
vn -0.5946 0.0241 0.8037
vn -0.7380 0.0489 0.6730
vn -0.8533 0.0718 0.5165
vn -0.9360 0.0920 0.3398
vn -0.9827 0.1087 0.1499
vn -0.9916 0.1212 -0.0459
vn -0.9621 0.1290 -0.2402
vn -0.8955 0.1319 -0.4252
vn -0.7942 0.1296 -0.5937
vn -0.6624 0.1223 -0.7391
vn -0.5051 0.1104 -0.8560
vn -0.3286 0.0942 -0.9398
vn -0.1397 0.0744 -0.9874
vn 0.0543 0.0518 -0.9972
vn 0.2462 0.0272 -0.9688
vn 0.4285 0.0016 -0.9035
vn 0.5946 -0.0241 -0.8037
vn 0.7380 -0.0489 -0.6730
vn 0.8533 -0.0718 -0.5164
vn 0.9360 -0.0920 -0.3399
vn 0.9827 -0.1087 -0.1499
vn 0.1185 0.9913 0.0579
vn 0.9916 -0.1212 0.0459
vn 0.9621 -0.1290 0.2402
vn -0.1185 -0.9913 -0.0579
vn -0.0237 0.9997 0.0068
vn -0.6619 -0.7069 -0.2493
vn 0.0062 -0.9999 -0.0131
vn -0.1012 -0.6031 -0.7912
vn 0.7911 0.0013 -0.6117
vn 0.4795 -0.7612 -0.4366
vn -0.5766 -0.6234 0.5281
vn -0.3419 -0.0144 0.9396
vn -0.2329 -0.7241 0.6492
vn 0.5445 -0.7943 0.2694
vn 0.9407 -0.0203 0.3386
vn 0.9264 -0.0208 0.3759
vn 0.5990 -0.7920 0.1182
vn 0.3040 -0.6710 -0.6762
vn 0.1453 0.0182 -0.9892
vn 0.4115 0.0128 -0.9113
vn 0.4086 -0.6944 -0.5923
vn 0.5420 0.0095 -0.8403
vn 0.3678 -0.7081 -0.6027
vn 0.4946 0.0108 -0.8691
vn 0.3087 -0.7021 -0.6417
vn 0.4180 0.0127 -0.9084
vn 0.2806 -0.6993 -0.6575
vn 0.3826 0.0135 -0.9238
vn 0.2417 -0.7039 -0.6679
vn 0.3360 0.0145 -0.9418
vn -0.0563 -0.7142 0.6976
vn 0.0133 -0.9999 -0.0106
vn 0.0391 -0.9992 -0.0013
vn -0.1646 -0.7223 0.6717
vn 0.0324 -0.9995 -0.0037
vn 0.0208 -0.9998 -0.0079
vn 0.0151 -0.9998 -0.0099
vn 0.0074 -0.9999 -0.0127
vn -0.9608 0.0079 0.2771
vn -0.3854 -0.6835 0.6199
vn -0.5191 -0.0101 0.8546
vn -0.7692 -0.6045 0.2073
vn -0.9407 0.0203 -0.3387
vn -0.6618 -0.7070 -0.2493
vn -0.2946 -0.0154 0.9555
vn -0.1963 -0.7196 0.6660
vn -0.2574 -0.0161 0.9662
vn -0.1734 -0.0177 0.9847
vn -0.0941 -0.7278 0.6793
vn -0.1185 -0.0186 0.9928
vn -0.2643 -0.0160 0.9643
vn -0.1905 -0.6921 0.6962
vn 0.9364 0.0832 0.3410
vn 0.9173 0.2172 0.3339
vn 0.9365 0.0902 0.3388
vn 0.1052 -0.6626 -0.7415
vn -0.2180 -0.9740 -0.0614
vn -0.5634 0.0249 -0.8258
vn 0.2193 -0.0231 0.9754
vn 0.0984 -0.7774 0.6212
vn -0.1975 -0.9732 -0.1182
vn -0.4543 -0.5910 -0.6665
vn -0.3420 -0.9296 -0.1375
vn 0.9049 0.1842 0.3836
vn 0.9009 0.2832 0.3290
vn -0.1732 -0.9818 -0.0775
vn 0.9535 -0.0197 0.3009
vn 0.8317 0.2319 0.5044
vn 0.8311 0.2352 0.5040
vn 0.9378 0.0833 0.3369
vn 0.9398 0.1857 0.2868
vn 0.9592 0.2407 0.1484
vn 0.9600 0.2374 0.1484
vn 0.9306 0.1419 0.3375
vn 0.6624 -0.1223 0.7391
vn -0.7380 0.0489 0.6731
vn -0.8533 0.0718 0.5164
vn -0.9827 0.1087 0.1500
vn -0.8954 0.1319 -0.4252
vn 0.0544 0.0518 -0.9972
vn 0.2461 0.0272 -0.9689
vn 0.9360 -0.0920 -0.3398
vn 0.9916 -0.1212 0.0460
vn 0.9621 -0.1290 0.2401
vn -0.8981 -0.0899 -0.4304
vn -0.7956 -0.0835 -0.6000
vn -0.6623 -0.0739 -0.7456
vn -0.5037 -0.0614 -0.8617
vn -0.3264 -0.0466 -0.9441
vn -0.1375 -0.0301 -0.9900
vn 0.0559 -0.0125 -0.9984
vn 0.2467 0.0055 -0.9691
vn 0.4281 0.0233 -0.9035
vn 0.5935 0.0402 -0.8038
vn 0.7370 0.0556 -0.6736
vn 0.8530 0.0690 -0.5173
vn 0.9369 0.0798 -0.3405
vn 0.9849 0.0876 -0.1496
vn 0.9946 0.0920 0.0478
vn 0.9654 0.0928 0.2438
vn 0.8981 0.0899 0.4305
vn 0.7956 0.0835 0.6000
vn 0.6623 0.0739 0.7456
vn 0.5037 0.0614 0.8617
vn 0.3264 0.0466 0.9441
vn 0.1375 0.0301 0.9900
vn -0.0559 0.0125 0.9984
vn -0.2467 -0.0055 0.9691
vn -0.4281 -0.0233 0.9035
vn -0.5935 -0.0402 0.8038
vn -0.7370 -0.0556 0.6736
vn -0.8530 -0.0690 0.5173
vn -0.9369 -0.0798 0.3404
vn -0.9848 -0.0876 0.1497
vn -0.1637 0.9855 -0.0439
vn -0.9946 -0.0920 -0.0478
vn -0.9654 -0.0928 -0.2438
vn 0.1637 -0.9855 0.0439
vn -0.8982 -0.0899 -0.4304
vn 0.4280 0.0233 -0.9035
vn -0.4281 -0.0233 0.9034
vn -0.9848 -0.0876 0.1496
vn -0.9654 -0.0928 -0.2439
vn 0.8955 -0.1319 0.4251
vn 0.6623 -0.1223 0.7391
vn -0.2461 -0.0272 0.9689
vn -0.9916 0.1212 -0.0460
vn -0.7942 0.1296 -0.5936
vn -0.6623 0.1223 -0.7391
vn 0.1182 0.9913 0.0579
vn 0.1183 0.9913 0.0579
vn 0.1186 0.9912 0.0579
vn 0.1186 0.9913 0.0579
vn 0.1184 0.9913 0.0579
vn 0.1185 0.9913 0.0580
vn 0.1187 0.9912 0.0578
vn 0.1183 0.9913 0.0576
vn -0.1186 -0.9913 -0.0579
vn -0.1184 -0.9913 -0.0579
vn -0.1185 -0.9913 -0.0578
vn 0.1391 0.0183 -0.9901
vn -0.5245 -0.0100 0.8514
vn -0.9407 0.0203 -0.3386
vn 0.9086 0.2543 0.3313
vn -0.9621 0.1290 -0.2401
vn -0.6623 0.1223 -0.7392
vn 0.9827 -0.1087 -0.1500
vn 0.1184 0.9913 0.0580
vn 0.1182 0.9913 0.0580
vn 0.1185 0.9913 0.0578
vn 0.1188 0.9912 0.0579
vn 0.1184 0.9913 0.0578
vn 0.1186 0.9912 0.0581
vn -0.8981 -0.0899 -0.4305
vn 0.9369 0.0798 -0.3404
vn 0.9946 0.0920 0.0477
vn 0.8981 0.0899 0.4304
vn 0.6622 0.0739 0.7456
vn -0.9369 -0.0798 0.3405
vn -0.9849 -0.0876 0.1496
vn -0.1636 0.9856 -0.0438
vn -0.1640 0.9855 -0.0438
vn -0.1637 0.9855 -0.0438
vn -0.1638 0.9855 -0.0439
vn -0.1637 0.9855 -0.0441
vn -0.1638 0.9855 -0.0441
vn -0.1638 0.9855 -0.0437
vn -0.1633 0.9856 -0.0438
vn -0.1635 0.9856 -0.0438
vn -0.1635 0.9856 -0.0439
vn -0.1635 0.9856 -0.0440
vn -0.1637 0.9855 -0.0440
vn -0.1636 0.9856 -0.0436
vn -0.1636 0.9855 -0.0438
vn 0.1638 -0.9855 0.0439
vn 0.1637 -0.9855 0.0438
vn 0.1637 -0.9855 0.0437
vn 0.1638 -0.9855 0.0438
vn 0.1639 -0.9855 0.0439
vn 0.1636 -0.9855 0.0439
vn 0.1636 -0.9856 0.0440
vn 0.7369 0.0556 -0.6737
vn 0.9848 0.0876 -0.1496
vn -0.5935 -0.0402 0.8039
vn -0.1638 0.9855 -0.0438
vn -0.1638 0.9855 -0.0440
vn -0.1634 0.9856 -0.0436
vn -0.1639 0.9855 -0.0439
vn -0.1636 0.9855 -0.0439
vn 0.1639 -0.9855 0.0438
vt 0.614108 0.545885
vt 0.615305 0.558093
vt 0.614108 0.558093
vt 0.615305 0.545885
vt 0.616479 0.558093
vt 0.616479 0.545885
vt 0.617584 0.558093
vt 0.617584 0.545885
vt 0.618579 0.558093
vt 0.597005 0.601041
vt 0.597903 0.613269
vt 0.597005 0.613242
vt 0.598939 0.601089
vt 0.598939 0.613290
vt 0.600071 0.601102
vt 0.600071 0.613303
vt 0.601257 0.601107
vt 0.601257 0.613308
vt 0.602451 0.613306
vt 0.603608 0.601094
vt 0.603608 0.613295
vt 0.604682 0.601076
vt 0.604682 0.613277
vt 0.605633 0.601051
vt 0.605633 0.613252
vt 0.609988 0.511915
vt 0.610983 0.524123
vt 0.609988 0.524123
vt 0.612089 0.511915
vt 0.612089 0.524123
vt 0.613262 0.511915
vt 0.613262 0.524123
vt 0.614459 0.524123
vt 0.614459 0.511915
vt 0.615632 0.524123
vt 0.616738 0.511915
vt 0.616738 0.524123
vt 0.617733 0.524123
vt 0.618579 0.511915
vt 0.618579 0.524123
vt 0.597147 0.564600
vt 0.598098 0.576826
vt 0.597147 0.576801
vt 0.599172 0.564643
vt 0.599172 0.576844
vt 0.600328 0.564653
vt 0.600328 0.576854
vt 0.601522 0.576857
vt 0.601522 0.564656
vt 0.602708 0.576852
vt 0.602708 0.564651
vt 0.603841 0.576838
vt 0.603841 0.564637
vt 0.604876 0.576818
vt 0.604876 0.564617
vt 0.605774 0.576790
vt 0.609988 0.545885
vt 0.610834 0.558093
vt 0.609988 0.558093
vt 0.610834 0.545885
vt 0.611829 0.558093
vt 0.585734 0.597825
vt 0.588199 0.589573
vt 0.596325 0.592105
vt 0.611829 0.545885
vt 0.612935 0.558093
vt 0.585287 0.572431
vt 0.589337 0.564822
vt 0.596915 0.568898
vt 0.285821 0.639901
vt 0.465180 0.584114
vt 0.513481 0.605719
vt 0.451661 0.545812
vt 0.290122 0.511321
vt 0.470041 0.522235
vt 0.104212 0.130483
vt 0.065012 0.048284
vt 0.113304 0.094210
vt 0.497509 0.141984
vt 0.575496 0.181941
vt 0.505837 0.195801
vt 0.110957 0.571944
vt 0.287120 0.601799
vt 0.133790 0.089447
vt 0.304878 0.000000
vt 0.302238 0.090178
vt 0.514604 0.040048
vt 0.470395 0.099306
vt 0.079019 0.472698
vt 0.054054 0.573231
vt 0.008167 0.498125
vt 0.072587 0.419687
vt 0.000000 0.423348
vt 0.074155 0.360733
vt 0.003531 0.355712
vt 0.077623 0.300588
vt 0.008370 0.292045
vt 0.083620 0.241238
vt 0.014548 0.229112
vt 0.092752 0.183744
vt 0.023972 0.165842
vt 0.512515 0.432734
vt 0.493531 0.481199
vt 0.502199 0.429331
vt 0.514182 0.313308
vt 0.503412 0.371659
vt 0.503339 0.312637
vt 0.501108 0.253948
vt 0.495795 0.197037
vt 0.472587 0.578209
vt 0.478972 0.526503
vt 0.524847 0.588464
vt 0.458557 0.546190
vt 0.289065 0.545342
vt 0.581219 0.245589
vt 0.511612 0.253709
vt 0.583772 0.308688
vt 0.585054 0.372415
vt 0.514231 0.373612
vt 0.585054 0.440020
vt 0.573516 0.514351
vt 0.503163 0.485603
vt 0.975903 0.403094
vt 0.837233 0.214565
vt 0.975918 0.214571
vt 0.100871 0.514566
vt 0.088818 0.468829
vt 0.110039 0.510763
vt 0.083031 0.416865
vt 0.085047 0.359391
vt 0.088482 0.300537
vt 0.094095 0.242083
vt 0.113117 0.132972
vt 0.105183 0.566524
vt 0.541428 0.062259
vt 0.490558 0.105257
vt 0.488478 0.143947
vt 0.120009 0.535648
vt 0.302233 0.090339
vt 0.837249 0.410752
vt 0.600224 0.214556
vt 0.297638 0.248374
vt 0.299221 0.193766
vt 0.128014 0.536111
vt 0.294508 0.357128
vt 0.296061 0.303020
vt 0.292993 0.410127
vt 0.064285 0.590356
vt 0.291530 0.461464
vt 0.300792 0.139708
vt 0.093107 0.027673
vt 0.596131 0.429112
vt 0.611257 0.427985
vt 0.975918 0.026047
vt 0.837264 0.018379
vt 0.611273 0.001129
vt 0.102709 0.185563
vt 0.596148 0.000000
vt 1.000000 0.030412
vt 0.999986 0.398732
vt 1.000000 0.214572
vt 0.614108 0.487498
vt 0.615305 0.499707
vt 0.614108 0.499707
vt 0.616478 0.487498
vt 0.616478 0.499707
vt 0.617584 0.499707
vt 0.617584 0.487498
vt 0.618579 0.499707
vt 0.588378 0.601041
vt 0.589276 0.613269
vt 0.588378 0.613242
vt 0.589276 0.601068
vt 0.590311 0.613290
vt 0.590311 0.601089
vt 0.591444 0.613303
vt 0.592630 0.601107
vt 0.592630 0.613308
vt 0.593824 0.613306
vt 0.594980 0.601094
vt 0.594980 0.613295
vt 0.596054 0.601076
vt 0.596054 0.613277
vt 0.597005 0.613252
vt 0.609988 0.511915
vt 0.610983 0.499707
vt 0.610983 0.511915
vt 0.612089 0.511915
vt 0.613262 0.499707
vt 0.613262 0.511915
vt 0.614459 0.511915
vt 0.614459 0.499707
vt 0.615632 0.511915
vt 0.615632 0.499707
vt 0.616738 0.511915
vt 0.617733 0.499707
vt 0.617733 0.511915
vt 0.618579 0.511915
vt 0.609471 0.604281
vt 0.610421 0.616507
vt 0.609471 0.616482
vt 0.610421 0.604306
vt 0.611495 0.616525
vt 0.611495 0.604324
vt 0.612652 0.616536
vt 0.613846 0.604338
vt 0.613846 0.616539
vt 0.615032 0.616533
vt 0.615032 0.604332
vt 0.616165 0.616520
vt 0.616165 0.604319
vt 0.617200 0.616499
vt 0.617200 0.604298
vt 0.618098 0.616472
vt 0.609988 0.487498
vt 0.610834 0.499707
vt 0.609988 0.499707
vt 0.610834 0.487498
vt 0.611829 0.499707
vt 0.597235 0.596755
vt 0.601238 0.589130
vt 0.608726 0.593175
vt 0.611829 0.487498
vt 0.612935 0.499707
vt 0.612935 0.487498
vt 0.585287 0.584581
vt 0.589337 0.576972
vt 0.596915 0.581048
vt 0.603494 0.496662
vt 0.604569 0.552601
vt 0.603379 0.552486
vt 0.604684 0.496777
vt 0.605714 0.552937
vt 0.605829 0.497113
vt 0.606768 0.553481
vt 0.606883 0.497657
vt 0.607691 0.554212
vt 0.607806 0.498388
vt 0.608449 0.555102
vt 0.608564 0.499278
vt 0.609011 0.556117
vt 0.609126 0.500293
vt 0.609356 0.557218
vt 0.609471 0.429112
vt 0.609726 0.486382
vt 0.609471 0.485256
vt 0.609726 0.430238
vt 0.609988 0.487498
vt 0.585174 0.436039
vt 0.585638 0.493290
vt 0.585289 0.492206
vt 0.585523 0.437124
vt 0.586205 0.494290
vt 0.586090 0.438123
vt 0.586965 0.495165
vt 0.586850 0.438998
vt 0.587892 0.495882
vt 0.587777 0.439716
vt 0.588948 0.496415
vt 0.588833 0.440248
vt 0.590094 0.496742
vt 0.589979 0.440575
vt 0.591285 0.496851
vt 0.592361 0.440570
vt 0.592476 0.496737
vt 0.593505 0.440239
vt 0.593620 0.496405
vt 0.594559 0.439702
vt 0.594674 0.495869
vt 0.595483 0.438980
vt 0.595598 0.495147
vt 0.596240 0.438102
vt 0.596355 0.494269
vt 0.596802 0.437100
vt 0.596917 0.493267
vt 0.597148 0.436014
vt 0.597263 0.492181
vt 0.609471 0.545885
vt 0.609732 0.488624
vt 0.609732 0.544769
vt 0.609988 0.543643
vt 0.597382 0.557193
vt 0.597847 0.500270
vt 0.597732 0.556094
vt 0.598413 0.499257
vt 0.598298 0.555081
vt 0.599174 0.498370
vt 0.599059 0.554194
vt 0.600100 0.497643
vt 0.599985 0.553467
vt 0.601157 0.497103
vt 0.601042 0.552927
vt 0.588811 0.429557
vt 0.602302 0.496772
vt 0.602188 0.552596
vt 0.604546 0.564102
vt 0.597377 0.559481
vt 0.603240 0.429112
vt 0.604546 0.485046
vt 0.603355 0.484936
vt 0.604431 0.429222
vt 0.605691 0.485377
vt 0.605576 0.429553
vt 0.606748 0.485917
vt 0.606633 0.430093
vt 0.607674 0.486644
vt 0.607559 0.430820
vt 0.608435 0.487531
vt 0.608320 0.431707
vt 0.609001 0.488544
vt 0.608886 0.432720
vt 0.609351 0.489643
vt 0.609726 0.603155
vt 0.609471 0.602029
vt 0.609726 0.547010
vt 0.609988 0.604271
vt 0.585169 0.503753
vt 0.585399 0.561006
vt 0.585054 0.559920
vt 0.585514 0.504839
vt 0.585961 0.562007
vt 0.586076 0.505841
vt 0.586719 0.562886
vt 0.586834 0.506719
vt 0.587642 0.563607
vt 0.587757 0.507441
vt 0.588697 0.564144
vt 0.588812 0.507977
vt 0.589841 0.564476
vt 0.589956 0.508309
vt 0.591032 0.564589
vt 0.592338 0.508314
vt 0.592223 0.564481
vt 0.593483 0.507987
vt 0.593368 0.564154
vt 0.594540 0.507454
vt 0.594425 0.563621
vt 0.595466 0.506737
vt 0.595351 0.562903
vt 0.596227 0.505862
vt 0.596112 0.562028
vt 0.596793 0.504862
vt 0.596678 0.561029
vt 0.597143 0.503778
vt 0.597028 0.559944
vt 0.609988 0.487498
vt 0.610250 0.430238
vt 0.610250 0.486382
vt 0.610505 0.429112
vt 0.610505 0.485256
vt 0.597377 0.489667
vt 0.597608 0.432743
vt 0.597723 0.488567
vt 0.598170 0.431728
vt 0.598284 0.487552
vt 0.598927 0.430838
vt 0.599042 0.486662
vt 0.599850 0.430107
vt 0.599965 0.485931
vt 0.600905 0.429563
vt 0.601020 0.485387
vt 0.588833 0.497286
vt 0.602049 0.429227
vt 0.602164 0.485051
vt 0.604569 0.496547
vt 0.597382 0.491955
vt 0.618579 0.545885
vt 0.597903 0.601068
vt 0.602451 0.601105
vt 0.610983 0.511915
vt 0.615632 0.511915
vt 0.617733 0.511915
vt 0.598098 0.564625
vt 0.605774 0.564589
vt 0.596776 0.593212
vt 0.597005 0.594386
vt 0.597005 0.595583
vt 0.596776 0.596755
vt 0.596325 0.597859
vt 0.595671 0.598852
vt 0.594839 0.599695
vt 0.593860 0.600357
vt 0.592773 0.600811
vt 0.591618 0.601041
vt 0.590441 0.601037
vt 0.589287 0.600800
vt 0.588199 0.600338
vt 0.587221 0.599670
vt 0.586388 0.598822
vt 0.585284 0.596718
vt 0.585054 0.595544
vt 0.585054 0.594347
vt 0.585284 0.593175
vt 0.585734 0.592071
vt 0.586388 0.591078
vt 0.587221 0.590235
vt 0.589287 0.589119
vt 0.590441 0.588889
vt 0.591618 0.588893
vt 0.592773 0.589130
vt 0.593860 0.589592
vt 0.594839 0.590260
vt 0.595671 0.591108
vt 0.612935 0.545885
vt 0.597147 0.570072
vt 0.597147 0.571268
vt 0.596915 0.572442
vt 0.596459 0.573547
vt 0.595797 0.574541
vt 0.594955 0.575386
vt 0.593965 0.576050
vt 0.592864 0.576507
vt 0.591696 0.576739
vt 0.590505 0.576738
vt 0.589337 0.576504
vt 0.588237 0.576045
vt 0.587246 0.575379
vt 0.586404 0.574532
vt 0.585742 0.573537
vt 0.585054 0.571257
vt 0.585054 0.570060
vt 0.585287 0.568887
vt 0.585742 0.567782
vt 0.586404 0.566788
vt 0.587246 0.565942
vt 0.588237 0.565279
vt 0.590505 0.564589
vt 0.591696 0.564590
vt 0.592864 0.564825
vt 0.593965 0.565284
vt 0.594955 0.565950
vt 0.595797 0.566796
vt 0.596459 0.567792
vt 0.040284 0.102884
vt 0.562904 0.118182
vt 0.585054 0.214556
vt 0.615305 0.487498
vt 0.618579 0.487498
vt 0.591444 0.601102
vt 0.593824 0.601105
vt 0.597005 0.601051
vt 0.609988 0.499707
vt 0.612089 0.499707
vt 0.616738 0.499707
vt 0.618579 0.499707
vt 0.612652 0.604335
vt 0.618098 0.604271
vt 0.608956 0.594347
vt 0.608956 0.595544
vt 0.608726 0.596718
vt 0.608276 0.597825
vt 0.607622 0.598822
vt 0.606790 0.599670
vt 0.605811 0.600338
vt 0.604724 0.600800
vt 0.603569 0.601037
vt 0.602392 0.601041
vt 0.601238 0.600811
vt 0.600150 0.600357
vt 0.599172 0.599695
vt 0.598339 0.598852
vt 0.597685 0.597859
vt 0.597005 0.595583
vt 0.597005 0.594386
vt 0.597235 0.593212
vt 0.597685 0.592105
vt 0.598339 0.591108
vt 0.599172 0.590260
vt 0.600150 0.589592
vt 0.602392 0.588893
vt 0.603569 0.588889
vt 0.604724 0.589119
vt 0.605811 0.589573
vt 0.606790 0.590235
vt 0.607622 0.591078
vt 0.608276 0.592071
vt 0.597147 0.582222
vt 0.597147 0.583418
vt 0.596915 0.584592
vt 0.596459 0.585697
vt 0.595797 0.586691
vt 0.594955 0.587536
vt 0.593965 0.588200
vt 0.592864 0.588657
vt 0.591696 0.588889
vt 0.590505 0.588888
vt 0.589337 0.588654
vt 0.588237 0.588195
vt 0.587246 0.587529
vt 0.586404 0.586682
vt 0.585742 0.585687
vt 0.585054 0.583407
vt 0.585054 0.582210
vt 0.585287 0.581037
vt 0.585742 0.579932
vt 0.586404 0.578938
vt 0.587246 0.578092
vt 0.588237 0.577429
vt 0.590505 0.576739
vt 0.591696 0.576740
vt 0.592864 0.576975
vt 0.593965 0.577434
vt 0.594955 0.578100
vt 0.595797 0.578946
vt 0.596459 0.579942
vt 0.609471 0.501393
vt 0.609988 0.431354
vt 0.591170 0.440684
vt 0.609471 0.489740
vt 0.597497 0.501369
vt 0.589956 0.429225
vt 0.591147 0.429112
vt 0.592338 0.429221
vt 0.593483 0.429548
vt 0.594540 0.430080
vt 0.595466 0.430798
vt 0.596227 0.431673
vt 0.596793 0.432672
vt 0.597143 0.433757
vt 0.597263 0.434885
vt 0.585054 0.434910
vt 0.585169 0.433781
vt 0.585514 0.432695
vt 0.586076 0.431694
vt 0.586834 0.430815
vt 0.587757 0.430094
vt 0.609471 0.558362
vt 0.609351 0.559505
vt 0.609001 0.560604
vt 0.608435 0.561617
vt 0.607674 0.562504
vt 0.606748 0.563231
vt 0.605691 0.563771
vt 0.603355 0.564212
vt 0.602164 0.564097
vt 0.601020 0.563761
vt 0.599965 0.563217
vt 0.599042 0.562486
vt 0.598284 0.561596
vt 0.597723 0.560581
vt 0.597263 0.558336
vt 0.609236 0.433819
vt 0.609988 0.548127
vt 0.591147 0.508423
vt 0.609988 0.431354
vt 0.597263 0.433843
vt 0.589979 0.496959
vt 0.591170 0.496851
vt 0.592361 0.496964
vt 0.593505 0.497296
vt 0.594559 0.497833
vt 0.595483 0.498554
vt 0.596240 0.499432
vt 0.596802 0.500434
vt 0.597148 0.501520
vt 0.597263 0.502649
vt 0.585054 0.502624
vt 0.585174 0.501496
vt 0.585523 0.500411
vt 0.586090 0.499412
vt 0.586850 0.498536
vt 0.587777 0.497819
vt 0.609471 0.490786
vt 0.609356 0.491930
vt 0.609011 0.493031
vt 0.608449 0.494046
vt 0.607691 0.494936
vt 0.606768 0.495667
vt 0.605714 0.496211
vt 0.603379 0.496662
vt 0.602188 0.496552
vt 0.601042 0.496220
vt 0.599985 0.495681
vt 0.599059 0.494954
vt 0.598298 0.494067
vt 0.597732 0.493054
vt 0.597263 0.490812
s 0
usemtl Material.001
f 2/1/1 3/2/1 1/3/1
f 4/4/2 5/5/2 3/2/2
f 6/6/3 7/7/3 5/5/3
f 8/8/4 9/9/4 7/7/4
f 10/10/5 11/11/5 9/12/5
f 11/11/6 14/13/6 13/14/6
f 13/14/7 16/15/7 15/16/7
f 15/16/8 18/17/8 17/18/8
f 18/17/9 19/19/9 17/18/9
f 19/19/10 22/20/10 21/21/10
f 21/21/11 24/22/11 23/23/11
f 23/23/12 26/24/12 25/25/12
f 26/26/13 27/27/13 25/28/13
f 27/27/14 30/29/14 29/30/14
f 29/30/15 32/31/15 31/32/15
f 32/31/16 33/33/16 31/32/16
f 34/34/17 35/35/17 33/33/17
f 35/35/18 38/36/18 37/37/18
f 38/36/19 39/38/19 37/37/19
f 39/38/20 42/39/20 41/40/20
f 42/41/21 43/42/21 41/43/21
f 43/42/22 46/44/22 45/45/22
f 45/45/23 48/46/23 47/47/23
f 48/46/24 49/48/24 47/47/24
f 50/49/25 51/50/25 49/48/25
f 52/51/26 53/52/26 51/50/26
f 54/53/27 55/54/27 53/52/27
f 56/55/28 57/56/28 55/54/28
f 58/57/29 59/58/29 57/59/29
f 60/60/30 61/61/30 59/58/30
f 38/62/31 22/63/31 6/64/31
f 62/65/32 63/66/32 61/61/32
f 63/66/33 2/1/33 1/3/33
f 31/67/34 47/68/34 63/69/34
f 147/70/35 132/71/35 113/72/35
s 1
f 131/73/36 146/74/37 112/75/37
f 75/76/38 134/77/39 133/78/40
f 82/79/41 98/80/42 84/81/43
s 0
f 147/70/35 130/82/35 152/83/35
s 1
f 65/84/44 139/85/45 137/86/45
f 137/86/45 73/87/46 67/88/47
f 76/89/48 72/90/49 90/91/50
f 90/91/50 81/92/51 76/89/48
f 95/93/52 80/94/53 81/92/51
f 94/95/54 79/96/55 80/94/53
f 93/97/56 78/98/57 79/96/55
f 92/99/58 77/100/59 78/98/57
f 91/101/60 75/76/38 77/100/59
f 88/102/61 120/103/62 119/104/63
f 86/105/64 118/106/65 117/107/66
f 84/81/43 116/108/67 115/109/68
f 128/110/69 68/111/70 74/112/71
f 126/113/72 132/71/73 131/73/36
f 132/71/73 151/114/74 131/73/36
f 84/81/43 99/115/75 85/116/76
f 85/116/76 100/117/77 86/105/64
f 86/105/64 101/118/78 87/119/79
f 87/119/79 102/120/80 88/102/61
f 88/102/61 97/121/81 83/122/82
f 83/122/82 74/112/71 68/111/70
f 155/123/83 149/124/84 153/125/85
f 66/126/86 111/127/62 103/128/37
f 81/92/51 111/127/62 76/89/48
f 80/94/53 110/129/63 81/92/51
f 79/96/55 109/130/65 80/94/53
f 78/98/57 108/131/66 79/96/55
f 77/100/59 107/132/67 78/98/57
f 105/133/87 77/100/59 75/76/38
f 66/126/86 127/134/88 72/90/49
f 67/88/47 154/135/89 136/136/90
s 0
f 113/72/35 128/110/35 74/112/35
s 1
f 126/113/72 112/75/37 68/111/70
f 84/81/43 114/137/91 82/79/41
f 85/116/76 117/107/66 116/108/67
f 87/119/79 119/104/63 118/106/65
f 68/111/70 120/103/62 83/122/82
f 103/128/37 125/138/92 66/126/86
f 114/137/91 137/139/93 67/88/47
f 121/140/94 150/141/95 149/124/84
f 115/109/68 141/142/67 140/143/68
f 129/144/36 127/134/88 125/138/92
f 117/107/66 143/145/65 142/146/66
f 118/106/65 144/147/63 143/145/65
s 0
f 104/148/35 127/134/35 130/82/35
s 1
f 112/75/37 145/149/62 120/103/62
f 115/109/68 148/150/96 114/137/91
f 119/104/63 145/149/62 144/147/63
f 65/84/44 134/77/39 71/151/97
f 70/152/98 150/141/95 123/153/99
f 151/114/74 130/82/73 129/144/36
f 135/154/100 149/124/84 122/155/101
f 122/155/101 150/141/95 124/156/102
f 116/108/67 142/146/66 141/142/67
f 146/74/37 129/144/36 103/128/37
f 103/128/37 145/149/62 146/74/37
f 110/129/63 145/149/62 111/127/62
f 109/130/65 144/147/63 110/129/63
f 108/131/66 143/145/65 109/130/65
f 107/132/67 142/146/66 108/131/66
f 106/157/68 141/142/67 107/132/67
f 148/150/96 106/157/68 105/133/87
f 150/141/95 69/158/103 124/156/102
f 154/135/89 82/79/41 136/136/90
f 65/84/44 148/150/96 105/133/87
f 65/159/104 153/125/85 135/154/100
f 67/160/104 153/125/85 137/161/104
s 0
f 157/162/1 158/163/1 156/164/1
f 158/163/2 161/165/2 160/166/2
f 161/165/105 162/167/105 160/166/105
f 163/168/4 164/169/4 162/167/4
f 165/170/5 166/171/5 164/172/5
f 167/173/6 168/174/6 166/171/6
f 169/175/7 170/176/7 168/174/7
f 170/176/8 173/177/8 172/178/8
f 173/177/9 174/179/9 172/178/9
f 174/179/10 177/180/10 176/181/10
f 176/181/106 179/182/106 178/183/106
f 179/182/107 180/184/107 178/183/107
f 180/185/13 183/186/13 182/187/13
f 183/186/108 184/188/108 182/187/108
f 184/188/15 187/189/15 186/190/15
f 187/189/16 188/191/16 186/190/16
f 189/192/109 190/193/109 188/191/109
f 191/194/18 192/195/18 190/193/18
f 192/195/19 195/196/19 194/197/19
f 195/196/20 196/198/20 194/197/20
f 197/199/21 198/200/21 196/201/21
f 199/202/22 200/203/22 198/200/22
f 201/204/110 202/205/110 200/203/110
f 202/205/111 205/206/111 204/207/111
f 205/206/25 206/208/25 204/207/25
f 207/209/26 208/210/26 206/208/26
f 209/211/27 210/212/27 208/210/27
f 211/213/28 212/214/28 210/212/28
f 213/215/112 214/216/112 212/217/112
f 215/218/30 216/219/30 214/216/30
f 193/220/31 177/221/31 161/222/31
f 217/223/113 218/224/113 216/219/113
f 219/225/114 156/164/114 218/224/114
f 186/226/34 202/227/34 218/228/34
f 221/229/115 222/230/115 220/231/115
f 223/232/116 224/233/116 222/230/116
f 225/234/117 226/235/117 224/233/117
f 227/236/118 228/237/118 226/235/118
f 229/238/119 230/239/119 228/237/119
f 231/240/120 232/241/120 230/239/120
f 233/242/121 234/243/121 232/241/121
f 235/244/122 236/245/122 234/246/122
f 237/247/123 238/248/123 236/245/123
f 239/249/124 240/250/124 238/251/124
f 241/252/125 242/253/125 240/250/125
f 243/254/126 244/255/126 242/253/126
f 245/256/127 246/257/127 244/255/127
f 247/258/128 248/259/128 246/257/128
f 249/260/129 250/261/129 248/259/129
f 251/262/130 252/263/130 250/261/130
f 252/263/131 255/264/131 254/265/131
f 254/265/132 257/266/132 256/267/132
f 256/267/133 259/268/133 258/269/133
f 258/269/134 261/270/134 260/271/134
f 260/271/135 263/272/135 262/273/135
f 262/273/136 265/274/136 264/275/136
f 264/275/137 267/276/137 266/277/137
f 266/278/138 269/279/138 268/280/138
f 268/280/139 271/215/139 270/281/139
f 270/282/140 273/283/140 272/284/140
f 272/284/141 275/285/141 274/286/141
f 274/286/142 277/287/142 276/288/142
f 276/288/143 279/289/143 278/290/143
f 278/290/144 281/291/144 280/292/144
f 257/266/145 241/252/145 225/293/145
f 280/292/146 283/294/146 282/295/146
f 282/295/147 221/229/147 220/231/147
f 250/296/148 266/297/148 282/295/148
f 285/298/149 286/299/149 284/300/149
f 287/301/116 288/302/116 286/299/116
f 289/303/117 290/304/117 288/302/117
f 291/305/118 292/306/118 290/304/118
f 293/307/119 294/308/119 292/306/119
f 295/309/120 296/310/120 294/308/120
f 297/311/121 298/312/121 296/310/121
f 299/278/122 300/313/122 298/314/122
f 301/315/150 302/316/150 300/313/150
f 303/317/124 304/318/124 302/319/124
f 305/320/125 306/321/125 304/318/125
f 307/322/126 308/323/126 306/321/126
f 309/324/127 310/325/127 308/323/127
f 311/326/128 312/327/128 310/325/128
f 313/328/129 314/329/129 312/327/129
f 315/330/130 316/331/130 314/329/130
f 316/331/131 319/332/131 318/333/131
f 318/333/132 321/334/132 320/335/132
f 320/335/133 323/336/133 322/337/133
f 322/337/134 325/338/134 324/339/134
f 324/339/135 327/340/135 326/341/135
f 326/341/136 329/342/136 328/343/136
f 328/343/137 331/344/137 330/345/137
f 330/346/138 333/347/138 332/348/138
f 332/348/151 335/349/151 334/350/151
f 334/351/140 337/352/140 336/353/140
f 336/353/141 339/354/141 338/355/141
f 338/355/142 341/356/142 340/357/142
f 340/357/143 343/358/143 342/359/143
f 342/359/152 345/360/152 344/361/152
f 321/334/145 305/320/145 289/362/145
f 344/361/146 347/363/146 346/364/146
f 346/364/153 285/298/153 284/300/153
f 314/365/148 330/366/148 346/364/148
f 2/1/154 4/4/154 3/2/154
f 4/4/2 6/6/2 5/5/2
f 6/6/155 8/8/155 7/7/155
f 8/8/4 10/367/4 9/9/4
f 10/10/5 12/368/5 11/11/5
f 11/11/6 12/368/6 14/13/6
f 13/14/7 14/13/7 16/15/7
f 15/16/156 16/15/156 18/17/156
f 18/17/9 20/369/9 19/19/9
f 19/19/10 20/369/10 22/20/10
f 21/21/11 22/20/11 24/22/11
f 23/23/107 24/22/107 26/24/107
f 26/26/13 28/370/13 27/27/13
f 27/27/108 28/370/108 30/29/108
f 29/30/157 30/29/157 32/31/157
f 32/31/16 34/34/16 33/33/16
f 34/34/17 36/371/17 35/35/17
f 35/35/158 36/371/158 38/36/158
f 38/36/159 40/372/159 39/38/159
f 39/38/20 40/372/20 42/39/20
f 42/41/21 44/373/21 43/42/21
f 43/42/22 44/373/22 46/44/22
f 45/45/23 46/44/23 48/46/23
f 48/46/111 50/49/111 49/48/111
f 50/49/25 52/51/25 51/50/25
f 52/51/26 54/53/26 53/52/26
f 54/53/27 56/55/27 55/54/27
f 56/55/28 58/374/28 57/56/28
f 58/57/112 60/60/112 59/58/112
f 60/60/30 62/65/30 61/61/30
f 6/64/160 4/375/160 2/376/160
f 2/376/161 64/377/161 62/378/161
f 62/378/162 60/379/162 58/380/162
f 58/380/163 56/381/163 54/382/163
f 54/382/164 52/383/164 50/384/164
f 50/384/165 48/385/165 46/386/165
f 46/386/31 44/387/31 42/388/31
f 42/388/165 40/389/165 38/62/165
f 38/62/160 36/390/160 34/391/160
f 34/391/164 32/392/164 30/393/164
f 30/393/164 28/394/164 26/395/164
f 26/395/166 24/396/166 22/63/166
f 22/63/164 20/397/164 18/398/164
f 18/398/31 16/399/31 14/400/31
f 14/400/167 12/401/167 10/402/167
f 10/402/164 8/403/164 6/64/164
f 6/64/31 2/376/31 62/378/31
f 62/378/164 58/380/164 54/382/164
f 54/382/31 50/384/31 46/386/31
f 46/386/31 42/388/31 38/62/31
f 38/62/31 34/391/31 30/393/31
f 30/393/31 26/395/31 22/63/31
f 22/63/31 18/398/31 14/400/31
f 14/400/31 10/402/31 6/64/31
f 6/64/31 62/378/31 54/382/31
f 54/382/31 46/386/31 38/62/31
f 38/62/164 30/393/164 22/63/164
f 22/63/31 14/400/31 6/64/31
f 6/64/31 54/382/31 38/62/31
f 62/65/32 64/404/32 63/66/32
f 63/66/33 64/404/33 2/1/33
f 63/69/34 1/405/34 3/406/34
f 3/406/34 5/407/34 7/408/34
f 7/408/34 9/409/34 11/410/34
f 11/410/34 13/411/34 15/412/34
f 15/412/34 17/413/34 19/414/34
f 19/414/34 21/415/34 23/416/34
f 23/416/168 25/417/168 27/418/168
f 27/418/34 29/419/34 31/67/34
f 31/67/169 33/420/169 35/421/169
f 35/421/169 37/422/169 39/423/169
f 39/423/169 41/424/169 43/425/169
f 43/425/34 45/426/34 47/68/34
f 47/68/170 49/427/170 51/428/170
f 51/428/34 53/429/34 55/430/34
f 55/430/168 57/431/168 59/432/168
f 59/432/34 61/433/34 63/69/34
f 63/69/34 3/406/34 7/408/34
f 7/408/34 11/410/34 15/412/34
f 15/412/34 19/414/34 23/416/34
f 23/416/169 27/418/169 31/67/169
f 31/67/34 35/421/34 39/423/34
f 39/423/34 43/425/34 47/68/34
f 47/68/34 51/428/34 55/430/34
f 55/430/34 59/432/34 63/69/34
f 63/69/34 7/408/34 15/412/34
f 15/412/34 23/416/34 31/67/34
f 31/67/34 39/423/34 47/68/34
f 47/68/34 55/430/34 63/69/34
f 63/69/34 15/412/34 31/67/34
f 147/70/35 152/83/35 132/71/35
s 1
f 131/73/36 151/114/74 146/74/37
f 75/76/38 89/434/171 134/77/39
f 82/79/41 96/435/172 98/80/42
s 0
f 147/70/35 104/148/35 130/82/35
s 1
f 65/84/44 71/151/97 139/85/45
f 137/86/45 139/85/45 73/87/46
f 76/89/48 66/126/86 72/90/49
f 90/91/50 95/93/52 81/92/51
f 95/93/52 94/95/54 80/94/53
f 94/95/54 93/97/56 79/96/55
f 93/97/56 92/99/58 78/98/57
f 92/99/58 91/101/60 77/100/59
f 91/101/60 89/434/171 75/76/38
f 88/102/61 83/122/82 120/103/62
f 86/105/64 87/119/79 118/106/65
f 84/81/43 85/116/76 116/108/67
f 128/110/69 126/113/72 68/111/70
f 126/113/72 128/110/69 132/71/73
f 132/71/73 152/83/173 151/114/74
f 84/81/43 98/80/42 99/115/75
f 85/116/76 99/115/75 100/117/77
f 86/105/64 100/117/77 101/118/78
f 87/119/79 101/118/78 102/120/80
f 88/102/61 102/120/80 97/121/81
f 83/122/82 97/121/81 74/112/71
f 155/123/83 121/140/94 149/124/84
f 66/126/86 76/89/48 111/127/62
f 81/92/51 110/129/63 111/127/62
f 80/94/53 109/130/65 110/129/63
f 79/96/55 108/131/66 109/130/65
f 78/98/57 107/132/67 108/131/66
f 77/100/59 106/157/68 107/132/67
f 105/133/87 106/157/68 77/100/59
f 66/126/86 125/138/92 127/134/88
f 67/88/47 73/87/46 154/135/89
s 0
f 113/72/35 132/71/35 128/110/35
s 1
f 126/113/72 131/73/36 112/75/37
f 84/81/43 115/109/68 114/137/91
f 85/116/76 86/105/64 117/107/66
f 87/119/79 88/102/61 119/104/63
f 68/111/70 112/75/37 120/103/62
f 103/128/37 129/144/36 125/138/92
f 136/136/90 82/79/41 114/137/91
f 114/137/91 148/150/96 137/139/93
f 67/88/47 136/136/90 114/137/91
f 121/140/94 123/153/99 150/141/95
f 115/109/68 116/108/67 141/142/67
f 129/144/36 130/82/73 127/134/88
f 117/107/66 118/106/65 143/145/65
f 118/106/65 119/104/63 144/147/63
s 0
f 104/148/35 72/90/35 127/134/35
s 1
f 112/75/37 146/74/37 145/149/62
f 115/109/68 140/143/68 148/150/96
f 119/104/63 120/103/62 145/149/62
f 65/84/44 133/78/40 134/77/39
f 70/152/98 138/436/174 150/141/95
f 151/114/74 152/83/173 130/82/73
f 135/154/100 153/125/85 149/124/84
f 122/155/101 149/124/84 150/141/95
f 116/108/67 117/107/66 142/146/66
f 146/74/37 151/114/74 129/144/36
f 103/128/37 111/127/62 145/149/62
f 110/129/63 144/147/63 145/149/62
f 109/130/65 143/145/65 144/147/63
f 108/131/66 142/146/66 143/145/65
f 107/132/67 141/142/67 142/146/66
f 106/157/68 140/143/68 141/142/67
f 148/150/96 140/143/68 106/157/68
f 150/141/95 138/436/174 69/158/103
f 154/135/89 96/435/172 82/79/41
f 105/133/87 75/76/38 133/78/40
f 65/84/44 137/139/93 148/150/96
f 105/133/87 133/78/40 65/84/44
f 65/159/104 137/161/104 153/125/85
f 67/160/104 155/123/83 153/125/85
s 0
f 157/162/154 159/437/154 158/163/154
f 158/163/2 159/437/2 161/165/2
f 161/165/3 163/168/3 162/167/3
f 163/168/4 165/438/4 164/169/4
f 165/170/5 167/173/5 166/171/5
f 167/173/6 169/175/6 168/174/6
f 169/175/7 171/439/7 170/176/7
f 170/176/8 171/439/8 173/177/8
f 173/177/9 175/440/9 174/179/9
f 174/179/10 175/440/10 177/180/10
f 176/181/11 177/180/11 179/182/11
f 179/182/107 181/441/107 180/184/107
f 180/185/13 181/442/13 183/186/13
f 183/186/14 185/443/14 184/188/14
f 184/188/15 185/443/15 187/189/15
f 187/189/175 189/192/175 188/191/175
f 189/192/17 191/194/17 190/193/17
f 191/194/18 193/444/18 192/195/18
f 192/195/176 193/444/176 195/196/176
f 195/196/20 197/445/20 196/198/20
f 197/199/21 199/202/21 198/200/21
f 199/202/22 201/204/22 200/203/22
f 201/204/23 203/446/23 202/205/23
f 202/205/111 203/446/111 205/206/111
f 205/206/25 207/209/25 206/208/25
f 207/209/26 209/211/26 208/210/26
f 209/211/27 211/213/27 210/212/27
f 211/213/28 213/447/28 212/214/28
f 213/215/112 215/218/112 214/216/112
f 215/218/177 217/223/177 216/219/177
f 161/222/164 159/448/164 157/449/164
f 157/449/160 219/450/160 217/451/160
f 217/451/178 215/452/178 213/453/178
f 213/453/161 211/454/161 209/455/161
f 209/455/179 207/456/179 205/457/179
f 205/457/178 203/458/178 201/459/178
f 201/459/180 199/460/180 197/461/180
f 197/461/163 195/462/163 193/220/163
f 193/220/160 191/463/160 189/464/160
f 189/464/181 187/465/181 185/466/181
f 185/466/163 183/467/163 181/468/163
f 181/468/164 179/469/164 177/221/164
f 177/221/163 175/470/163 173/471/163
f 173/471/180 171/472/180 169/473/180
f 169/473/182 167/474/182 165/475/182
f 165/475/183 163/476/183 161/222/183
f 161/222/31 157/449/31 217/451/31
f 217/451/31 213/453/31 209/455/31
f 209/455/31 205/457/31 201/459/31
f 201/459/164 197/461/164 193/220/164
f 193/220/164 189/464/164 185/466/164
f 185/466/31 181/468/31 177/221/31
f 177/221/31 173/471/31 169/473/31
f 169/473/31 165/475/31 161/222/31
f 161/222/31 217/451/31 209/455/31
f 209/455/31 201/459/31 193/220/31
f 193/220/164 185/466/164 177/221/164
f 177/221/31 169/473/31 161/222/31
f 161/222/31 209/455/31 193/220/31
f 217/223/32 219/225/32 218/224/32
f 219/225/33 157/162/33 156/164/33
f 218/228/169 156/477/169 158/478/169
f 158/478/34 160/479/34 162/480/34
f 162/480/34 164/481/34 166/482/34
f 166/482/34 168/483/34 170/484/34
f 170/484/34 172/485/34 174/486/34
f 174/486/34 176/487/34 178/488/34
f 178/488/34 180/489/34 182/490/34
f 182/490/169 184/491/169 186/226/169
f 186/226/34 188/492/34 190/493/34
f 190/493/34 192/494/34 194/495/34
f 194/495/34 196/496/34 198/497/34
f 198/497/34 200/498/34 202/227/34
f 202/227/34 204/499/34 206/500/34
f 206/500/170 208/501/170 210/502/170
f 210/502/34 212/503/34 214/504/34
f 214/504/34 216/505/34 218/228/34
f 218/228/34 158/478/34 162/480/34
f 162/480/34 166/482/34 170/484/34
f 170/484/34 174/486/34 178/488/34
f 178/488/34 182/490/34 186/226/34
f 186/226/34 190/493/34 194/495/34
f 194/495/34 198/497/34 202/227/34
f 202/227/34 206/500/34 210/502/34
f 210/502/34 214/504/34 218/228/34
f 218/228/34 162/480/34 170/484/34
f 170/484/34 178/488/34 186/226/34
f 186/226/34 194/495/34 202/227/34
f 202/227/34 210/502/34 218/228/34
f 218/228/34 170/484/34 186/226/34
f 221/229/184 223/232/184 222/230/184
f 223/232/116 225/234/116 224/233/116
f 225/234/117 227/236/117 226/235/117
f 227/236/118 229/238/118 228/237/118
f 229/238/119 231/240/119 230/239/119
f 231/240/120 233/242/120 232/241/120
f 233/242/121 235/506/121 234/243/121
f 235/244/122 237/247/122 236/245/122
f 237/247/150 239/507/150 238/248/150
f 239/249/124 241/252/124 240/250/124
f 241/252/125 243/254/125 242/253/125
f 243/254/126 245/256/126 244/255/126
f 245/256/185 247/258/185 246/257/185
f 247/258/128 249/260/128 248/259/128
f 249/260/186 251/262/186 250/261/186
f 251/262/130 253/508/130 252/263/130
f 252/263/187 253/508/187 255/264/187
f 254/265/132 255/264/132 257/266/132
f 256/267/188 257/266/188 259/268/188
f 258/269/134 259/268/134 261/270/134
f 260/271/135 261/270/135 263/272/135
f 262/273/136 263/272/136 265/274/136
f 264/275/137 265/274/137 267/276/137
f 266/278/138 267/509/138 269/279/138
f 268/280/139 269/279/139 271/215/139
f 270/282/140 271/510/140 273/283/140
f 272/284/141 273/283/141 275/285/141
f 274/286/142 275/285/142 277/287/142
f 276/288/189 277/287/189 279/289/189
f 278/290/190 279/289/190 281/291/190
f 225/293/191 223/511/191 221/512/191
f 221/512/192 283/513/192 281/514/192
f 281/514/192 279/515/192 277/516/192
f 277/516/193 275/517/193 273/518/193
f 273/518/194 271/519/194 269/520/194
f 269/520/195 267/276/195 265/274/195
f 265/274/196 263/272/196 261/270/196
f 261/270/197 259/268/197 257/266/197
f 257/266/198 255/264/198 253/508/198
f 253/508/199 251/262/199 249/260/199
f 249/260/193 247/258/193 245/256/193
f 245/256/200 243/254/200 241/252/200
f 241/252/201 239/249/201 237/521/201
f 237/521/202 235/522/202 233/523/202
f 233/523/203 231/524/203 229/525/203
f 229/525/204 227/526/204 225/293/204
f 225/293/145 221/512/145 281/514/145
f 281/514/145 277/516/145 273/518/145
f 273/518/145 269/520/145 265/274/145
f 265/274/145 261/270/145 257/266/145
f 257/266/194 253/508/194 249/260/194
f 249/260/145 245/256/145 241/252/145
f 241/252/194 237/521/194 233/523/194
f 233/523/145 229/525/145 225/293/145
f 225/293/145 281/514/145 273/518/145
f 273/518/193 265/274/193 257/266/193
f 257/266/145 249/260/145 241/252/145
f 241/252/145 233/523/145 225/293/145
f 225/293/145 273/518/145 257/266/145
f 280/292/146 281/291/146 283/294/146
f 282/295/147 283/294/147 221/229/147
f 282/295/148 220/231/148 222/230/148
f 222/230/205 224/233/205 226/235/205
f 226/235/206 228/237/206 230/239/206
f 230/239/207 232/241/207 234/243/207
f 234/243/206 236/527/206 238/528/206
f 238/528/208 240/529/208 242/530/208
f 242/530/206 244/531/206 246/532/206
f 246/532/209 248/533/209 250/296/209
f 250/296/210 252/534/210 254/535/210
f 254/535/205 256/536/205 258/537/205
f 258/537/148 260/538/148 262/539/148
f 262/539/206 264/540/206 266/297/206
f 266/297/208 268/541/208 270/282/208
f 270/282/211 272/284/211 274/286/211
f 274/286/148 276/288/148 278/290/148
f 278/290/208 280/292/208 282/295/208
f 282/295/205 222/230/205 226/235/205
f 226/235/148 230/239/148 234/243/148
f 234/243/206 238/528/206 242/530/206
f 242/530/148 246/532/148 250/296/148
f 250/296/148 254/535/148 258/537/148
f 258/537/148 262/539/148 266/297/148
f 266/297/206 270/282/206 274/286/206
f 274/286/148 278/290/148 282/295/148
f 282/295/148 226/235/148 234/243/148
f 234/243/148 242/530/148 250/296/148
f 250/296/148 258/537/148 266/297/148
f 266/297/148 274/286/148 282/295/148
f 282/295/148 234/243/148 250/296/148
f 285/298/184 287/301/184 286/299/184
f 287/301/116 289/303/116 288/302/116
f 289/303/117 291/305/117 290/304/117
f 291/305/118 293/307/118 292/306/118
f 293/307/119 295/309/119 294/308/119
f 295/309/120 297/311/120 296/310/120
f 297/311/121 299/542/121 298/312/121
f 299/278/122 301/315/122 300/313/122
f 301/315/150 303/543/150 302/316/150
f 303/317/124 305/320/124 304/318/124
f 305/320/212 307/322/212 306/321/212
f 307/322/126 309/324/126 308/323/126
f 309/324/127 311/326/127 310/325/127
f 311/326/213 313/328/213 312/327/213
f 313/328/129 315/330/129 314/329/129
f 315/330/130 317/544/130 316/331/130
f 316/331/131 317/544/131 319/332/131
f 318/333/132 319/332/132 321/334/132
f 320/335/133 321/334/133 323/336/133
f 322/337/134 323/336/134 325/338/134
f 324/339/135 325/338/135 327/340/135
f 326/341/136 327/340/136 329/342/136
f 328/343/137 329/342/137 331/344/137
f 330/346/138 331/545/138 333/347/138
f 332/348/151 333/347/151 335/349/151
f 334/351/214 335/546/214 337/352/214
f 336/353/141 337/352/141 339/354/141
f 338/355/142 339/354/142 341/356/142
f 340/357/189 341/356/189 343/358/189
f 342/359/190 343/358/190 345/360/190
f 289/362/194 287/547/194 285/548/194
f 285/548/199 347/549/199 345/550/199
f 345/550/200 343/551/200 341/552/200
f 341/552/145 339/553/145 337/554/145
f 337/554/215 335/555/215 333/556/215
f 333/556/145 331/344/145 329/342/145
f 329/342/216 327/340/216 325/338/216
f 325/338/217 323/336/217 321/334/217
f 321/334/199 319/332/199 317/544/199
f 317/544/198 315/330/198 313/328/198
f 313/328/145 311/326/145 309/324/145
f 309/324/202 307/322/202 305/320/202
f 305/320/145 303/317/145 301/557/145
f 301/557/215 299/558/215 297/559/215
f 297/559/204 295/560/204 293/561/204
f 293/561/218 291/562/218 289/362/218
f 289/362/193 285/548/193 345/550/193
f 345/550/194 341/552/194 337/554/194
f 337/554/145 333/556/145 329/342/145
f 329/342/215 325/338/215 321/334/215
f 321/334/215 317/544/215 313/328/215
f 313/328/219 309/324/219 305/320/219
f 305/320/145 301/557/145 297/559/145
f 297/559/193 293/561/193 289/362/193
f 289/362/145 345/550/145 337/554/145
f 337/554/193 329/342/193 321/334/193
f 321/334/145 313/328/145 305/320/145
f 305/320/145 297/559/145 289/362/145
f 289/362/145 337/554/145 321/334/145
f 344/361/146 345/360/146 347/363/146
f 346/364/147 347/363/147 285/298/147
f 346/364/205 284/300/205 286/299/205
f 286/299/206 288/302/206 290/304/206
f 290/304/148 292/306/148 294/308/148
f 294/308/206 296/310/206 298/312/206
f 298/312/206 300/563/206 302/564/206
f 302/564/206 304/565/206 306/566/206
f 306/566/205 308/567/205 310/568/205
f 310/568/220 312/569/220 314/365/220
f 314/365/206 316/570/206 318/571/206
f 318/571/205 320/572/205 322/573/205
f 322/573/206 324/574/206 326/575/206
f 326/575/206 328/576/206 330/366/206
f 330/366/148 332/577/148 334/351/148
f 334/351/148 336/353/148 338/355/148
f 338/355/148 340/357/148 342/359/148
f 342/359/206 344/361/206 346/364/206
f 346/364/205 286/299/205 290/304/205
f 290/304/206 294/308/206 298/312/206
f 298/312/148 302/564/148 306/566/148
f 306/566/148 310/568/148 314/365/148
f 314/365/148 318/571/148 322/573/148
f 322/573/148 326/575/148 330/366/148
f 330/366/206 334/351/206 338/355/206
f 338/355/148 342/359/148 346/364/148
f 346/364/148 290/304/148 298/312/148
f 298/312/148 306/566/148 314/365/148
f 314/365/148 322/573/148 330/366/148
f 330/366/148 338/355/148 346/364/148
f 346/364/148 298/312/148 314/365/148
